/* XPM */
static char *_df40ca5b7994df9df62d9251c92686a[] = {
/* columns rows colors chars-per-pixel */
"64 64 134 2 ",
"   c #0F385F",
".  c #0F3760",
"X  c #0F3860",
"o  c #133C62",
"O  c #184066",
"+  c #1E446A",
"@  c #21476C",
"#  c #23496D",
"$  c #2D5B6B",
"%  c #274C70",
"&  c #294E72",
"*  c #2E5275",
"=  c #325577",
"-  c #345779",
";  c #345978",
":  c #387167",
">  c #3E7B63",
",  c #336270",
"<  c #386274",
"1  c #1FBF3C",
"2  c #1ACF07",
"3  c #1CCE0E",
"4  c #18D100",
"5  c #1ECE12",
"6  c #23DC01",
"7  c #2ADF0E",
"8  c #20CF12",
"9  c #2ADB17",
"0  c #2ED11E",
"q  c #29D919",
"w  c #2CE700",
"e  c #2FE801",
"r  c #2BE208",
"t  c #32E704",
"y  c #34E804",
"u  c #3BEA06",
"i  c #3CEA09",
"p  c #1DC32E",
"a  c #1EC137",
"s  c #2FD428",
"d  c #32D321",
"f  c #2BCB37",
"g  c #24C53B",
"h  c #43EC0B",
"j  c #4CEE0D",
"k  c #50EF0F",
"l  c #47E513",
"z  c #46EB11",
"x  c #48EC13",
"c  c #52EF10",
"v  c #52ED19",
"b  c #5CEE1E",
"n  c #56F011",
"m  c #5AF113",
"M  c #5DF018",
"N  c #65F51C",
"B  c #44DE26",
"V  c #40D72F",
"C  c #48DF29",
"Z  c #5BDB29",
"A  c #59C939",
"S  c #4ADA3C",
"D  c #54DC35",
"F  c #49E125",
"G  c #4EE32A",
"H  c #5DE323",
"J  c #5DEF20",
"K  c #52E22F",
"L  c #5FEC30",
"P  c #5CE13B",
"I  c #60F023",
"U  c #6AF621",
"Y  c #6EF824",
"T  c #6AF229",
"R  c #71F927",
"E  c #73F32F",
"W  c #7AFC2E",
"Q  c #61E637",
"!  c #61E73F",
"~  c #64E93E",
"^  c #69EB3D",
"/  c #6EF03B",
"(  c #75F330",
")  c #7FFC36",
"_  c #74F43A",
"`  c #7EF43A",
"'  c #7BF938",
"]  c #24BB4E",
"[  c #2ABF4E",
"{  c #21B950",
"}  c #448A5C",
"|  c #499C50",
" . c #50B441",
".. c #5AA859",
"X. c #438163",
"o. c #23C142",
"O. c #29C147",
"+. c #2CC14D",
"@. c #31C54C",
"#. c #37C84A",
"$. c #3CCC49",
"%. c #33C251",
"&. c #40CF48",
"*. c #46D446",
"=. c #48D546",
"-. c #4ED944",
";. c #55DE42",
":. c #5BDE46",
">. c #71DE57",
",. c #73DE58",
"<. c #5DE540",
"1. c #65E545",
"2. c #6DE544",
"3. c #78E745",
"4. c #76E94B",
"5. c #83FF36",
"6. c #82F639",
"7. c #8BF73F",
"8. c #86FF38",
"9. c #8DFF3E",
"0. c #8DF740",
"q. c #8FF842",
"w. c #94F747",
"e. c #97FF44",
"r. c #9AFA49",
"t. c #81E559",
"y. c #9FF456",
"u. c #A3FD4E",
"i. c #A5FD50",
"p. c #ACFE54",
"a. c #B1FF57",
"s. c #B5FF5A",
"d. c #BBFF5F",
"f. c None",
/* pixels */
"f.f.f.f.f.f.f.f.f.f.f.f.f.f.f.f.f.f.f.f.f.f.f.u.p.p.p.a.a.d.d.d.d.a.s.a.a.a.p.p.i.f.f.f.f.f.f.f.f.f.f.f.f.f.f.f.f.f.f.f.f.f.f.f.",
"f.f.f.f.f.f.f.f.f.f.f.f.f.f.f.f.f.f.p.p.s.d.d.d.d.d.d.d.d.d.d.d.d.d.d.d.d.d.d.d.d.d.d.d.p.p.f.f.f.f.f.f.f.f.f.f.f.f.f.f.f.f.f.f.",
"f.f.f.f.f.f.f.f.f.f.f.f.f.f.i.p.d.d.d.d.d.d.d.d.d.d.d.d.d.d.d.d.d.d.d.d.d.d.d.d.d.d.d.d.d.d.d.s.p.u.f.f.f.f.f.f.f.f.f.f.f.f.f.f.",
"f.f.f.f.f.f.f.f.f.f.f.f.p.d.d.d.d.d.d.d.d.d.d.d.d.d.d.d.d.i.J u t J p.d.d.d.d.d.d.d.d.d.d.d.d.d.d.d.d.p.f.f.f.f.f.f.f.f.f.f.f.f.",
"f.f.f.f.f.f.f.f.f.i.a.d.d.d.d.d.d.d.d.d.d.d.d.d.d.d.d.d.E w w w w w w E s.d.d.d.d.d.d.d.d.d.d.d.d.d.d.d.d.a.u.f.f.f.f.f.f.f.f.f.",
"f.f.f.f.f.f.f.f.a.d.d.d.d.d.d.d.d.d.d.d.d.d.d.d.d.d.q.i w w w w w w w w i 0.d.d.d.d.d.d.d.d.d.d.d.d.d.d.d.d.d.s.f.f.f.f.f.f.f.f.",
"f.f.f.f.f.f.p.d.d.d.d.d.d.d.d.d.d.d.d.d.d.d.d.d.i.v w w w w w w w w w w w w v u.d.d.d.d.d.d.d.d.d.d.d.d.d.d.d.d.d.p.f.f.f.f.f.f.",
"f.f.f.f.f.s.d.d.d.d.d.d.d.d.d.d.d.d.d.d.d.d.a.T w w w w w w w w w w w w w w w r T a.d.d.d.d.d.d.d.d.d.d.d.d.d.d.d.d.s.f.f.f.f.f.",
"f.f.f.f.d.d.d.d.d.d.d.d.d.d.d.d.d.d.d.d.d.` u w w w w w w w w w w w w w w w w w w u ` d.d.d.d.d.d.d.d.d.d.d.d.d.d.d.d.d.f.f.f.f.",
"f.f.f.d.d.d.d.d.d.d.d.d.d.d.d.d.d.d.d.r.z w w w w w w w w w w 6 6 w w w w w w w w w w z w.d.d.d.d.d.d.d.d.d.d.d.d.d.d.d.d.f.f.f.",
"f.f.s.d.d.d.d.d.d.d.d.d.d.d.d.d.d.p.J w w w w w w w w w w 6 4 4 4 4 6 w w w w w w w w w w J p.d.d.d.d.d.d.d.d.d.d.d.d.d.d.s.f.f.",
"f.p.d.d.d.d.d.d.d.d.d.d.d.d.d.d.( y w w w w w w w w w x r.2 4 4 4 4 2 r.x w w w w w w w w w t ( d.d.d.d.d.d.d.d.d.d.d.d.d.d.p.f.",
"f.d.d.d.d.d.d.d.d.d.d.d.d.d.q.i w w w w w w w w w u 6.d.d.2 4 4 4 4 2 d.d.6.u w w w w w w w w w i q.d.d.d.d.d.d.d.d.d.d.d.d.d.f.",
"i.d.d.d.d.d.d.d.d.d.d.d.p.v w w w w w w w w w w T s.d.d.d.2 4 4 4 4 2 d.d.d.s.T w w w w w w w w w w v a.d.d.d.d.d.d.d.d.d.d.d.i.",
"p.d.d.d.d.d.d.d.d.d.d.d.z w w w w w w w w w v i.d.d.d.d.d.2 4 4 4 4 2 d.d.d.d.d.i.v w w w w w w w w w J d.d.d.d.d.d.d.d.d.d.d.p.",
"d.d.d.d.d.d.d.d.d.d.d.p.w w w w w w w w h q.d.d.d.d.d.d.d.2 4 4 4 4 2 d.d.d.d.d.d.d.q.h w w w w w w w w r.d.d.d.d.d.d.d.d.d.d.d.",
"s.d.d.d.d.d.d.d.d.d.d.w.w w w w w w w w h q.d.d.d.d.d.d.d.2 4 4 4 4 2 d.d.d.d.d.d.d.q.h w w w w w w w w i.d.d.d.d.d.d.d.d.d.d.d.",
"a.d.d.d.d.d.d.d.d.d.d.^ w w w w w w w w w w v i.d.d.d.d.d.2 4 4 4 4 2 d.d.d.d.d.i.v w w w w w w w w w w ^ d.d.d.d.d.d.d.d.d.d.a.",
"d.d.d.d.d.d.d.d.d.d.d.Q w w w w w w w w w w w w T s.d.d.d.2 4 4 4 4 2 d.d.d.s.T w w w w w w w w w w w w Q d.d.d.d.d.d.d.d.d.d.d.",
"f.d.d.d.d.d.d.d.d.d.d.Q w w w w w w w w w w w w w y 6.d.d.2 4 4 4 4 2 d.d.6.y w w w w w w w w w w w w w Q d.d.d.d.d.d.d.d.d.d.f.",
"f.s.d.d.d.d.d.d.d.d.d.Q w w w w w w w w w w w w w w w x r.2 4 4 4 4 2 r.z w w w w w w w w w w w w w w w Q d.d.d.d.d.d.d.d.d.s.f.",
"f.f.s.d.d.d.d.d.d.d.d.Q w w w w w G J w w w w w w w w w w 6 4 4 4 4 r w w w w w w w w w w J G w w w w w Q d.d.d.d.d.d.d.d.s.f.f.",
"f.f.r.d.d.d.d.d.d.d.d.Q w w w w w K d.w.z w w w w w w w w w w 6 6 w w w w w w w w w w z w.d.K w w w w w Q d.d.d.d.d.d.d.d.r.f.f.",
"f.f.f.q.s.d.d.d.d.d.d.Q w w w w w K d.d.d.` u w w w w w w w w w w w w w w w w w w u ` d.d.d.K w w w w w Q d.d.d.d.d.d.s.9.f.f.f.",
"f.f.f.f.9.a.d.d.d.d.d.Q w w w w w K d.d.d.d.a.L e w w w w w w w w w w w w w w w T a.d.d.d.d.K w w w w w Q d.d.d.d.d.s.9.f.f.f.f.",
"f.f.f.f.5.8.u.d.d.d.d.Q w w w w w K d.d.d.d.d.d.u.v w w w w w w w w w w w w v u.d.d.d.d.d.d.K w w w w w Q d.d.d.d.u.8.5.f.f.f.f.",
"f.f.f.f.f.5.8.9.a.d.d.2.w w w w w P d.d.d.d.d.d.d.D 2 w w w w w w w w w w 2 D d.d.d.d.d.d.d.P w w w e w 2.d.d.a.9.5.5.f.f.f.f.f.",
"f.f.f.f.f.5.5.5.5.e.p.t.r w w w r ,.d.d.d.d.d.3.8 4 4 4 6 w w w w w w 6 4 4 4 3 4.d.d.d.d.d.>.7 w w e 7 ,.a.e.5.8.5.5.f.f.f.f.f.",
"f.f.f.f.f.8.5.5.5.5.5.1.o.q w q g ,.d.d.d.y.0 4 4 4 4 4 4 r w w w w r 4 4 4 4 4 4 0 y.d.d.d.,.g 9 w q o.1.5.5.5.5.5.5.f.f.f.f.f.",
"f.f.f.f.f.f.5.5.5.5.8.<.{ { { { { ,.d.d.>.5 4 4 4 4 4 4 4 r w w w w r 4 4 4 4 4 4 4 5 >.d.d.,.{ { ] { { P 5.5.5.5.5.f.f.f.f.f.f.",
"f.f.f.f.f.f.5.5.5.5.5.<.{ { { { { :.4.%.p 4 4 4 4 4 4 4 4 r w w w w r 4 4 4 4 4 4 4 4 p %.4.:.{ { { { { <.8.5.5.5.5.f.f.f.f.f.f.",
"f.f.f.f.f.f.f.5.5.5.5.<.{ { { { { @.{ { p 4 4 4 4 4 4 4 d r w w w w r d 4 4 4 4 4 4 4 p { { @.{ { { { { <.5.5.5.5.f.f.f.f.f.f.f.",
"f.f.f.f.f.f.f.5.5.5.8.<.{ { { { { { { { a 4 4 4 4 4 8 L 5.9 w w w w 9 5.L 5 4 4 4 4 4 1 { { { { { { { { <.8.5.5.5.f.f.f.f.f.f.f.",
"f.f.f.f.f.f.f.f.5.5.5.<.{ { { { { { { { { a 2 4 3 C 5.5.5.f w w w w f 5.5.5.F 3 4 4 p { { { { { { { { { <.5.5.5.f.f.f.f.f.f.f.f.",
"f.f.f.f.f.f.f.f.8.5.5.P { { { { { { { { { { ] -.) 8.5.5.5.[ g 9 q g +.5.5.5.5.) S { { { { { { { { { { { P 5.5.8.f.f.f.f.f.f.f.f.",
"f.f.f.f.f.f.f.f.f.5.8./ { { { { { { { { { &._ 5.5.5.5.5.5.[ { { { { +.) 5.5.5.5.5.' $.{ { { { { { { { { ^ 5.5.f.f.f.f.f.f.f.f.f.",
"f.f.f.f.f.f.f.f.f.8.5./ { { { { { { { { $.) 5.5.5.5.5.5.5.[ { { { { [ 5.5.5.5.5.5.5.) $.{ { { { { { { { ' 5.8.f.f.f.f.f.f.f.f.f.",
"f.f.f.f.f.f.f.f.f.f.5.) +.{ { { { { { { { +.1.5.5.5.5.5.5.[ { { { { [ 5.5.5.5.5.5.1.+.{ { { { { { { { { ) 5.f.f.f.f.f.f.f.f.f.f.",
"f.f.f.f.f.f.f.f.f.f.5.5./ { { { { { { { { { { $./ 5.5.5.5.[ { { { { [ 5.5.8.5./ #.{ { { { { { { { { ] ! 5.5.f.f.f.f.f.f.f.f.f.f.",
"f.f.f.f.f.f.f.f.f.f.f.5.5.' $.{ { { { { { { { { { *.' 5.5.+.{ { { { [ 5.5.' =.{ { { { { { { { { { $.' 5.5.f.f.f.f.f.f.f.f.f.f.f.",
"f.f.f.f.f.f.f.f.f.f.f.5.5.5.5.^ @.{ { { { { { { { { [ P ) +.{ { { { +.5.;.[ { { { { { { { { { +.^ 5.5.5.5.f.f.f.f.f.f.f.f.f.f.f.",
"f.f.f.f.f.f.f.f.f.f.f.f.5.5.5.5.5.;.] { { { { { { { { { @.$.{ { { { $.@.{ { { { { { { { { ] <.) 5.5.5.5.f.f.f.f.f.f.f.f.f.f.f.f.",
"f.f.f.f.f.f.f.f.f.f.f.f.5.5.5.5.5.5.' *.{ { { { { { { { { { { { { { { { { { { { { { { { *.' 5.5.5.5.5.5.f.f.f.f.f.f.f.f.f.f.f.f.",
"f.f.f.f.f.f.f.f.f.f.f.f.f.5.5.5.5.5.5.5./ #.{ { { { { { { { { { { { { { { { { { { { #./ 5.5.5.5.5.5.5.f.f.f.f.f.f.f.f.f.f.f.f.f.",
"f.f.f.f.f.f.f.f.f.f.f.f.f.5.5.5.5.5.5.5.5.5.1.+.{ { { { { { { { { { { { { { { { +.P 5.5.5.5.5.5.5.5.5.f.f.f.f.f.f.f.f.f.f.f.f.f.",
"f.f.f.f.f.f.f.f.f.f.f.f.f.f.5.5.5.5.5.5.5.5.5.' -.] { { { { { { { { { { { { { -.) 5.5.5.5.5.5.5.5.5.f.f.f.f.f.f.f.f.f.f.f.f.f.f.",
"f.f.f.f.f.f.f.f.f.f.f.f.f.f.5.5.5.5.5.5.5.5.5.5.5._ $.{ { { { { { { { { { $.' 5.5.5.5.5.5.5.5.5.5.5.f.f.f.f.f.f.f.f.f.f.f.f.f.f.",
"f.f.f.f.f.f.f.f.f.f.f.f.f.f.f.5.5.5.5.5.5.5.5.W Y N m F O.{ { { { { { o.q i N Y W 5.5.5.5.5.5.5.5.f.f.f.f.f.f.f.f.f.f.f.f.f.f.f.",
"f.f.f.f.f.f.f.f.f.f.f.f.f.f.f.5.5.5.5.8.) U M m m m m m m s ] { { ] V y w u m m m m U ) 5.5.5.5.5.f.f.f.f.f.f.f.f.f.f.f.f.f.f.f.",
"f.f.f.f.f.f.f.f.f.f.f.f.f.f.f.$ ` 5.5.Y m h j m m m n h k m z B B h n k j m j j n m m M R 5.5.` $ f.f.f.f.f.f.f.f.f.f.f.f.f.f.f.",
"f.f.f.f.f.f.f.f.f.f.f.f.f.f.f.= ..8.N m h w w n m m u w e m m m u w u m m n e w h n m m m N 5...= f.f.f.f.f.f.f.f.f.f.f.f.f.f.f.",
"f.f.f.f.f.f.f.f.f.f.f.f.f.f.f.- < E m m j w e m m m h w y m m m u w u m m m e w h m m m m m E < - f.f.f.f.f.f.f.f.f.f.f.f.f.f.f.",
"f.f.f.f.f.f.f.f.f.f.f.f.f.f.% - - A m m m k n n h j m j n n h k c j m j h n n j m j h n m m A - - % f.f.f.f.f.f.f.f.f.f.f.f.f.f.",
"f.f.f.f.f.f.f.f.f.f.f.f.f.f.+ - ; > m m m m n h w w n m m y w e n m m e w u m m n w w h m m > - - + f.f.f.f.f.f.f.f.f.f.f.f.f.f.",
"f.f.f.f.f.f.f.f.f.f.f.f.f.f.f.* - -  .m m m m h w e m m m h w u m m m y w h m m m e w j M  .- - * f.f.f.f.f.f.f.f.f.f.f.f.f.f.f.",
"f.f.f.f.f.f.f.f.f.f.f.f.f.f.f.O - - - > H m m m n m k h j m k m j i c m k m m m m m n H > - - ; O f.f.f.f.f.f.f.f.f.f.f.f.f.f.f.",
"f.f.f.f.f.f.f.f.f.f.f.f.f.f.f.X O = - - - | Z M m m u w e m m m y w u m m m m m M Z | ; - - = o X f.f.f.f.f.f.f.f.f.f.f.f.f.f.f.",
"f.f.f.f.f.f.f.f.f.f.f.f.f.f.f.  X X & - - - - ; } A l w u m m m u w h M b H A } ; - - - - & X X   f.f.f.f.f.f.f.f.f.f.f.f.f.f.f.",
"f.f.f.f.f.f.f.f.f.f.f.f.f.f.f.f.  X X + * - - - - - - , ; ; < X.X.: ; - - - - - - - - * +   X   f.f.f.f.f.f.f.f.f.f.f.f.f.f.f.f.",
"f.f.f.f.f.f.f.f.f.f.f.f.f.f.f.f.f.. X X . o @ * - - - - - ; - - ; ; ; - - - - - * @ o X . . . f.f.f.f.f.f.f.f.f.f.f.f.f.f.f.f.f.",
"f.f.f.f.f.f.f.f.f.f.f.f.f.f.f.f.f.f.X X X X X X o @ # & & * - - - - * & & # @ o X X X X X X f.f.f.f.f.f.f.f.f.f.f.f.f.f.f.f.f.f.",
"f.f.f.f.f.f.f.f.f.f.f.f.f.f.f.f.f.f.f.f..   X X X X . . X X X X X X X X . .     X X   X f.f.f.f.f.f.f.f.f.f.f.f.f.f.f.f.f.f.f.f.",
"f.f.f.f.f.f.f.f.f.f.f.f.f.f.f.f.f.f.f.f.f.f.f.  X X   X X X X X X X X X X X . X   f.f.f.f.f.f.f.f.f.f.f.f.f.f.f.f.f.f.f.f.f.f.f.",
"f.f.f.f.f.f.f.f.f.f.f.f.f.f.f.f.f.f.f.f.f.f.f.f.f.f.f.  X X X   X X X X   f.f.f.f.f.f.f.f.f.f.f.f.f.f.f.f.f.f.f.f.f.f.f.f.f.f.f."
};
